<mxfile host="app.diagrams.net" agent="Mozilla/5.0 (Windows NT 10.0; Win64; x64) AppleWebKit/537.36 (KHTML, like Gecko) Chrome/141.0.0.0 Safari/537.36" version="28.2.7">
  <diagram name="Página-1" id="YkplTdPDaJiILXqfYxeM">
    <mxGraphModel dx="1285" dy="1708" grid="1" gridSize="10" guides="1" tooltips="1" connect="1" arrows="1" fold="1" page="1" pageScale="1" pageWidth="827" pageHeight="1169" math="0" shadow="0">
      <root>
        <mxCell id="0" />
        <mxCell id="1" parent="0" />
        <mxCell id="OJfio0yOhIOVdULLnk6X-9" value="Libro" style="swimlane;fontStyle=0;childLayout=stackLayout;horizontal=1;startSize=30;horizontalStack=0;resizeParent=1;resizeParentMax=0;resizeLast=0;collapsible=1;marginBottom=0;whiteSpace=wrap;html=1;" vertex="1" parent="1">
          <mxGeometry x="200" y="-90" width="140" height="270" as="geometry">
            <mxRectangle x="80" y="200" width="70" height="40" as="alternateBounds" />
          </mxGeometry>
        </mxCell>
        <mxCell id="OJfio0yOhIOVdULLnk6X-10" value="+isbn:String" style="text;strokeColor=none;fillColor=none;align=left;verticalAlign=middle;spacingLeft=4;spacingRight=4;overflow=hidden;points=[[0,0.5],[1,0.5]];portConstraint=eastwest;rotatable=0;whiteSpace=wrap;html=1;" vertex="1" parent="OJfio0yOhIOVdULLnk6X-9">
          <mxGeometry y="30" width="140" height="30" as="geometry" />
        </mxCell>
        <mxCell id="OJfio0yOhIOVdULLnk6X-11" value="i+titulo:String" style="text;strokeColor=none;fillColor=none;align=left;verticalAlign=middle;spacingLeft=4;spacingRight=4;overflow=hidden;points=[[0,0.5],[1,0.5]];portConstraint=eastwest;rotatable=0;whiteSpace=wrap;html=1;spacingBottom=0;fontSize=12;" vertex="1" parent="OJfio0yOhIOVdULLnk6X-9">
          <mxGeometry y="60" width="140" height="30" as="geometry" />
        </mxCell>
        <mxCell id="OJfio0yOhIOVdULLnk6X-12" value="&lt;div&gt;+autor:String&lt;/div&gt;" style="text;strokeColor=none;fillColor=none;align=left;verticalAlign=middle;spacingLeft=4;spacingRight=4;overflow=hidden;points=[[0,0.5],[1,0.5]];portConstraint=eastwest;rotatable=0;whiteSpace=wrap;html=1;spacingBottom=0;fontSize=12;" vertex="1" parent="OJfio0yOhIOVdULLnk6X-9">
          <mxGeometry y="90" width="140" height="30" as="geometry" />
        </mxCell>
        <mxCell id="OJfio0yOhIOVdULLnk6X-13" value="+editorial:String" style="text;strokeColor=none;fillColor=none;align=left;verticalAlign=middle;spacingLeft=4;spacingRight=4;overflow=hidden;points=[[0,0.5],[1,0.5]];portConstraint=eastwest;rotatable=0;whiteSpace=wrap;html=1;strokeWidth=1;" vertex="1" parent="OJfio0yOhIOVdULLnk6X-9">
          <mxGeometry y="120" width="140" height="30" as="geometry" />
        </mxCell>
        <mxCell id="OJfio0yOhIOVdULLnk6X-16" value="+anio:int" style="text;strokeColor=none;fillColor=none;align=left;verticalAlign=middle;spacingLeft=4;spacingRight=4;overflow=hidden;points=[[0,0.5],[1,0.5]];portConstraint=eastwest;rotatable=0;whiteSpace=wrap;html=1;strokeWidth=1;" vertex="1" parent="OJfio0yOhIOVdULLnk6X-9">
          <mxGeometry y="150" width="140" height="30" as="geometry" />
        </mxCell>
        <mxCell id="OJfio0yOhIOVdULLnk6X-15" value="categoría:String" style="text;strokeColor=none;fillColor=none;align=left;verticalAlign=middle;spacingLeft=4;spacingRight=4;overflow=hidden;points=[[0,0.5],[1,0.5]];portConstraint=eastwest;rotatable=0;whiteSpace=wrap;html=1;strokeWidth=1;" vertex="1" parent="OJfio0yOhIOVdULLnk6X-9">
          <mxGeometry y="180" width="140" height="30" as="geometry" />
        </mxCell>
        <mxCell id="OJfio0yOhIOVdULLnk6X-14" value="+ejemplaresTotales:int" style="text;strokeColor=none;fillColor=none;align=left;verticalAlign=middle;spacingLeft=4;spacingRight=4;overflow=hidden;points=[[0,0.5],[1,0.5]];portConstraint=eastwest;rotatable=0;whiteSpace=wrap;html=1;strokeWidth=1;" vertex="1" parent="OJfio0yOhIOVdULLnk6X-9">
          <mxGeometry y="210" width="140" height="30" as="geometry" />
        </mxCell>
        <mxCell id="OJfio0yOhIOVdULLnk6X-17" value="+ejemplaresDisponibles:int" style="text;strokeColor=none;fillColor=none;align=left;verticalAlign=middle;spacingLeft=4;spacingRight=4;overflow=hidden;points=[[0,0.5],[1,0.5]];portConstraint=eastwest;rotatable=0;whiteSpace=wrap;html=1;strokeWidth=1;" vertex="1" parent="OJfio0yOhIOVdULLnk6X-9">
          <mxGeometry y="240" width="140" height="30" as="geometry" />
        </mxCell>
        <mxCell id="OJfio0yOhIOVdULLnk6X-30" value="Prestamo" style="swimlane;fontStyle=0;childLayout=stackLayout;horizontal=1;startSize=30;horizontalStack=0;resizeParent=1;resizeParentMax=0;resizeLast=0;collapsible=1;marginBottom=0;whiteSpace=wrap;html=1;" vertex="1" parent="1">
          <mxGeometry x="600" y="-100" width="173" height="240" as="geometry">
            <mxRectangle x="80" y="200" width="70" height="40" as="alternateBounds" />
          </mxGeometry>
        </mxCell>
        <mxCell id="OJfio0yOhIOVdULLnk6X-31" value="+codigoBarra:String" style="text;strokeColor=none;fillColor=none;align=left;verticalAlign=middle;spacingLeft=4;spacingRight=4;overflow=hidden;points=[[0,0.5],[1,0.5]];portConstraint=eastwest;rotatable=0;whiteSpace=wrap;html=1;" vertex="1" parent="OJfio0yOhIOVdULLnk6X-30">
          <mxGeometry y="30" width="173" height="30" as="geometry" />
        </mxCell>
        <mxCell id="OJfio0yOhIOVdULLnk6X-32" value="+estadoFisico:EstadoEjemplar" style="text;strokeColor=none;fillColor=none;align=left;verticalAlign=middle;spacingLeft=4;spacingRight=4;overflow=hidden;points=[[0,0.5],[1,0.5]];portConstraint=eastwest;rotatable=0;whiteSpace=wrap;html=1;spacingBottom=0;fontSize=12;" vertex="1" parent="OJfio0yOhIOVdULLnk6X-30">
          <mxGeometry y="60" width="173" height="30" as="geometry" />
        </mxCell>
        <mxCell id="OJfio0yOhIOVdULLnk6X-33" value="&lt;div&gt;+estado:EstadoReserva&lt;/div&gt;" style="text;strokeColor=none;fillColor=none;align=left;verticalAlign=middle;spacingLeft=4;spacingRight=4;overflow=hidden;points=[[0,0.5],[1,0.5]];portConstraint=eastwest;rotatable=0;whiteSpace=wrap;html=1;spacingBottom=0;fontSize=12;" vertex="1" parent="OJfio0yOhIOVdULLnk6X-30">
          <mxGeometry y="90" width="173" height="30" as="geometry" />
        </mxCell>
        <mxCell id="OJfio0yOhIOVdULLnk6X-74" value="+fecha:Date" style="text;strokeColor=none;fillColor=none;align=left;verticalAlign=middle;spacingLeft=4;spacingRight=4;overflow=hidden;points=[[0,0.5],[1,0.5]];portConstraint=eastwest;rotatable=0;whiteSpace=wrap;html=1;spacingBottom=0;fontSize=12;" vertex="1" parent="OJfio0yOhIOVdULLnk6X-30">
          <mxGeometry y="120" width="173" height="30" as="geometry" />
        </mxCell>
        <mxCell id="OJfio0yOhIOVdULLnk6X-8" value="+motivo:String&lt;div&gt;&lt;br&gt;&lt;/div&gt;" style="text;strokeColor=none;fillColor=none;align=left;verticalAlign=middle;spacingLeft=4;spacingRight=4;overflow=hidden;points=[[0,0.5],[1,0.5]];portConstraint=eastwest;rotatable=0;whiteSpace=wrap;html=1;spacingBottom=0;fontSize=12;" vertex="1" parent="OJfio0yOhIOVdULLnk6X-30">
          <mxGeometry y="150" width="173" height="30" as="geometry" />
        </mxCell>
        <mxCell id="OJfio0yOhIOVdULLnk6X-5" value="+pagada:boolean" style="text;strokeColor=none;fillColor=none;align=left;verticalAlign=middle;spacingLeft=4;spacingRight=4;overflow=hidden;points=[[0,0.5],[1,0.5]];portConstraint=eastwest;rotatable=0;whiteSpace=wrap;html=1;strokeWidth=1;" vertex="1" parent="OJfio0yOhIOVdULLnk6X-30">
          <mxGeometry y="180" width="173" height="30" as="geometry" />
        </mxCell>
        <mxCell id="OJfio0yOhIOVdULLnk6X-4" value="+monto:Decimal" style="text;strokeColor=none;fillColor=none;align=left;verticalAlign=middle;spacingLeft=4;spacingRight=4;overflow=hidden;points=[[0,0.5],[1,0.5]];portConstraint=eastwest;rotatable=0;whiteSpace=wrap;html=1;spacingBottom=0;fontSize=12;" vertex="1" parent="OJfio0yOhIOVdULLnk6X-30">
          <mxGeometry y="210" width="173" height="30" as="geometry" />
        </mxCell>
        <mxCell id="OJfio0yOhIOVdULLnk6X-35" value="Administrador" style="swimlane;fontStyle=0;childLayout=stackLayout;horizontal=1;startSize=30;horizontalStack=0;resizeParent=1;resizeParentMax=0;resizeLast=0;collapsible=1;marginBottom=0;whiteSpace=wrap;html=1;" vertex="1" parent="1">
          <mxGeometry x="930" y="170" width="140" height="240" as="geometry">
            <mxRectangle x="80" y="200" width="70" height="40" as="alternateBounds" />
          </mxGeometry>
        </mxCell>
        <mxCell id="OJfio0yOhIOVdULLnk6X-36" value="+id:String" style="text;strokeColor=none;fillColor=none;align=left;verticalAlign=middle;spacingLeft=4;spacingRight=4;overflow=hidden;points=[[0,0.5],[1,0.5]];portConstraint=eastwest;rotatable=0;whiteSpace=wrap;html=1;" vertex="1" parent="OJfio0yOhIOVdULLnk6X-35">
          <mxGeometry y="30" width="140" height="30" as="geometry" />
        </mxCell>
        <mxCell id="OJfio0yOhIOVdULLnk6X-37" value="+rut:int" style="text;strokeColor=none;fillColor=none;align=left;verticalAlign=middle;spacingLeft=4;spacingRight=4;overflow=hidden;points=[[0,0.5],[1,0.5]];portConstraint=eastwest;rotatable=0;whiteSpace=wrap;html=1;spacingBottom=0;fontSize=12;" vertex="1" parent="OJfio0yOhIOVdULLnk6X-35">
          <mxGeometry y="60" width="140" height="30" as="geometry" />
        </mxCell>
        <mxCell id="OJfio0yOhIOVdULLnk6X-38" value="&lt;div&gt;+nombre:String&lt;/div&gt;" style="text;strokeColor=none;fillColor=none;align=left;verticalAlign=middle;spacingLeft=4;spacingRight=4;overflow=hidden;points=[[0,0.5],[1,0.5]];portConstraint=eastwest;rotatable=0;whiteSpace=wrap;html=1;spacingBottom=0;fontSize=12;" vertex="1" parent="OJfio0yOhIOVdULLnk6X-35">
          <mxGeometry y="90" width="140" height="30" as="geometry" />
        </mxCell>
        <mxCell id="OJfio0yOhIOVdULLnk6X-39" value="+email:String" style="text;strokeColor=none;fillColor=none;align=left;verticalAlign=middle;spacingLeft=4;spacingRight=4;overflow=hidden;points=[[0,0.5],[1,0.5]];portConstraint=eastwest;rotatable=0;whiteSpace=wrap;html=1;spacingBottom=0;fontSize=12;" vertex="1" parent="OJfio0yOhIOVdULLnk6X-35">
          <mxGeometry y="120" width="140" height="30" as="geometry" />
        </mxCell>
        <mxCell id="OJfio0yOhIOVdULLnk6X-40" value="+tipo:TipoUsuario" style="text;strokeColor=none;fillColor=none;align=left;verticalAlign=middle;spacingLeft=4;spacingRight=4;overflow=hidden;points=[[0,0.5],[1,0.5]];portConstraint=eastwest;rotatable=0;whiteSpace=wrap;html=1;spacingBottom=0;fontSize=12;" vertex="1" parent="OJfio0yOhIOVdULLnk6X-35">
          <mxGeometry y="150" width="140" height="30" as="geometry" />
        </mxCell>
        <mxCell id="OJfio0yOhIOVdULLnk6X-42" value="+activo:boolean" style="text;strokeColor=none;fillColor=none;align=left;verticalAlign=middle;spacingLeft=4;spacingRight=4;overflow=hidden;points=[[0,0.5],[1,0.5]];portConstraint=eastwest;rotatable=0;whiteSpace=wrap;html=1;spacingBottom=0;fontSize=12;" vertex="1" parent="OJfio0yOhIOVdULLnk6X-35">
          <mxGeometry y="180" width="140" height="30" as="geometry" />
        </mxCell>
        <mxCell id="OJfio0yOhIOVdULLnk6X-43" value="+direccion:String" style="text;strokeColor=none;fillColor=none;align=left;verticalAlign=middle;spacingLeft=4;spacingRight=4;overflow=hidden;points=[[0,0.5],[1,0.5]];portConstraint=eastwest;rotatable=0;whiteSpace=wrap;html=1;spacingBottom=0;fontSize=12;" vertex="1" parent="OJfio0yOhIOVdULLnk6X-35">
          <mxGeometry y="210" width="140" height="30" as="geometry" />
        </mxCell>
        <mxCell id="OJfio0yOhIOVdULLnk6X-44" value="Usuario" style="swimlane;fontStyle=0;childLayout=stackLayout;horizontal=1;startSize=30;horizontalStack=0;resizeParent=1;resizeParentMax=0;resizeLast=0;collapsible=1;marginBottom=0;whiteSpace=wrap;html=1;" vertex="1" parent="1">
          <mxGeometry x="330" y="260" width="140" height="210" as="geometry">
            <mxRectangle x="80" y="200" width="70" height="40" as="alternateBounds" />
          </mxGeometry>
        </mxCell>
        <mxCell id="OJfio0yOhIOVdULLnk6X-46" value="+nombre:String" style="text;strokeColor=none;fillColor=none;align=left;verticalAlign=middle;spacingLeft=4;spacingRight=4;overflow=hidden;points=[[0,0.5],[1,0.5]];portConstraint=eastwest;rotatable=0;whiteSpace=wrap;html=1;spacingBottom=0;fontSize=12;" vertex="1" parent="OJfio0yOhIOVdULLnk6X-44">
          <mxGeometry y="30" width="140" height="30" as="geometry" />
        </mxCell>
        <mxCell id="OJfio0yOhIOVdULLnk6X-45" value="+id:String" style="text;strokeColor=none;fillColor=none;align=left;verticalAlign=middle;spacingLeft=4;spacingRight=4;overflow=hidden;points=[[0,0.5],[1,0.5]];portConstraint=eastwest;rotatable=0;whiteSpace=wrap;html=1;" vertex="1" parent="OJfio0yOhIOVdULLnk6X-44">
          <mxGeometry y="60" width="140" height="30" as="geometry" />
        </mxCell>
        <mxCell id="OJfio0yOhIOVdULLnk6X-47" value="&lt;div&gt;+email:String&lt;/div&gt;" style="text;strokeColor=none;fillColor=none;align=left;verticalAlign=middle;spacingLeft=4;spacingRight=4;overflow=hidden;points=[[0,0.5],[1,0.5]];portConstraint=eastwest;rotatable=0;whiteSpace=wrap;html=1;spacingBottom=0;fontSize=12;" vertex="1" parent="OJfio0yOhIOVdULLnk6X-44">
          <mxGeometry y="90" width="140" height="30" as="geometry" />
        </mxCell>
        <mxCell id="OJfio0yOhIOVdULLnk6X-48" value="+tipo:TipoUsuario" style="text;strokeColor=none;fillColor=none;align=left;verticalAlign=middle;spacingLeft=4;spacingRight=4;overflow=hidden;points=[[0,0.5],[1,0.5]];portConstraint=eastwest;rotatable=0;whiteSpace=wrap;html=1;spacingBottom=0;fontSize=12;" vertex="1" parent="OJfio0yOhIOVdULLnk6X-44">
          <mxGeometry y="120" width="140" height="30" as="geometry" />
        </mxCell>
        <mxCell id="OJfio0yOhIOVdULLnk6X-49" value="+activo:boolean" style="text;strokeColor=none;fillColor=none;align=left;verticalAlign=middle;spacingLeft=4;spacingRight=4;overflow=hidden;points=[[0,0.5],[1,0.5]];portConstraint=eastwest;rotatable=0;whiteSpace=wrap;html=1;spacingBottom=0;fontSize=12;" vertex="1" parent="OJfio0yOhIOVdULLnk6X-44">
          <mxGeometry y="150" width="140" height="30" as="geometry" />
        </mxCell>
        <mxCell id="OJfio0yOhIOVdULLnk6X-50" value="+direccion:String" style="text;strokeColor=none;fillColor=none;align=left;verticalAlign=middle;spacingLeft=4;spacingRight=4;overflow=hidden;points=[[0,0.5],[1,0.5]];portConstraint=eastwest;rotatable=0;whiteSpace=wrap;html=1;spacingBottom=0;fontSize=12;" vertex="1" parent="OJfio0yOhIOVdULLnk6X-44">
          <mxGeometry y="180" width="140" height="30" as="geometry" />
        </mxCell>
        <mxCell id="OJfio0yOhIOVdULLnk6X-55" value="Bibliotecario" style="swimlane;fontStyle=0;childLayout=stackLayout;horizontal=1;startSize=30;horizontalStack=0;resizeParent=1;resizeParentMax=0;resizeLast=0;collapsible=1;marginBottom=0;whiteSpace=wrap;html=1;" vertex="1" parent="1">
          <mxGeometry x="650" y="250" width="140" height="210" as="geometry">
            <mxRectangle x="80" y="200" width="70" height="40" as="alternateBounds" />
          </mxGeometry>
        </mxCell>
        <mxCell id="OJfio0yOhIOVdULLnk6X-56" value="+id:String" style="text;strokeColor=none;fillColor=none;align=left;verticalAlign=middle;spacingLeft=4;spacingRight=4;overflow=hidden;points=[[0,0.5],[1,0.5]];portConstraint=eastwest;rotatable=0;whiteSpace=wrap;html=1;" vertex="1" parent="OJfio0yOhIOVdULLnk6X-55">
          <mxGeometry y="30" width="140" height="30" as="geometry" />
        </mxCell>
        <mxCell id="OJfio0yOhIOVdULLnk6X-57" value="+nombre:String" style="text;strokeColor=none;fillColor=none;align=left;verticalAlign=middle;spacingLeft=4;spacingRight=4;overflow=hidden;points=[[0,0.5],[1,0.5]];portConstraint=eastwest;rotatable=0;whiteSpace=wrap;html=1;spacingBottom=0;fontSize=12;" vertex="1" parent="OJfio0yOhIOVdULLnk6X-55">
          <mxGeometry y="60" width="140" height="30" as="geometry" />
        </mxCell>
        <mxCell id="OJfio0yOhIOVdULLnk6X-58" value="&lt;div&gt;+email:String&lt;/div&gt;" style="text;strokeColor=none;fillColor=none;align=left;verticalAlign=middle;spacingLeft=4;spacingRight=4;overflow=hidden;points=[[0,0.5],[1,0.5]];portConstraint=eastwest;rotatable=0;whiteSpace=wrap;html=1;spacingBottom=0;fontSize=12;" vertex="1" parent="OJfio0yOhIOVdULLnk6X-55">
          <mxGeometry y="90" width="140" height="30" as="geometry" />
        </mxCell>
        <mxCell id="OJfio0yOhIOVdULLnk6X-59" value="+tipo:TipoUsuario" style="text;strokeColor=none;fillColor=none;align=left;verticalAlign=middle;spacingLeft=4;spacingRight=4;overflow=hidden;points=[[0,0.5],[1,0.5]];portConstraint=eastwest;rotatable=0;whiteSpace=wrap;html=1;spacingBottom=0;fontSize=12;" vertex="1" parent="OJfio0yOhIOVdULLnk6X-55">
          <mxGeometry y="120" width="140" height="30" as="geometry" />
        </mxCell>
        <mxCell id="OJfio0yOhIOVdULLnk6X-60" value="+activo:boolean" style="text;strokeColor=none;fillColor=none;align=left;verticalAlign=middle;spacingLeft=4;spacingRight=4;overflow=hidden;points=[[0,0.5],[1,0.5]];portConstraint=eastwest;rotatable=0;whiteSpace=wrap;html=1;spacingBottom=0;fontSize=12;" vertex="1" parent="OJfio0yOhIOVdULLnk6X-55">
          <mxGeometry y="150" width="140" height="30" as="geometry" />
        </mxCell>
        <mxCell id="OJfio0yOhIOVdULLnk6X-61" value="+direccion:String" style="text;strokeColor=none;fillColor=none;align=left;verticalAlign=middle;spacingLeft=4;spacingRight=4;overflow=hidden;points=[[0,0.5],[1,0.5]];portConstraint=eastwest;rotatable=0;whiteSpace=wrap;html=1;spacingBottom=0;fontSize=12;" vertex="1" parent="OJfio0yOhIOVdULLnk6X-55">
          <mxGeometry y="180" width="140" height="30" as="geometry" />
        </mxCell>
        <mxCell id="OJfio0yOhIOVdULLnk6X-82" style="edgeStyle=orthogonalEdgeStyle;rounded=0;orthogonalLoop=1;jettySize=auto;html=1;entryX=0;entryY=0.5;entryDx=0;entryDy=0;" edge="1" parent="1" source="OJfio0yOhIOVdULLnk6X-62" target="OJfio0yOhIOVdULLnk6X-10">
          <mxGeometry relative="1" as="geometry" />
        </mxCell>
        <mxCell id="OJfio0yOhIOVdULLnk6X-62" value="Universitario" style="swimlane;fontStyle=0;childLayout=stackLayout;horizontal=1;startSize=30;horizontalStack=0;resizeParent=1;resizeParentMax=0;resizeLast=0;collapsible=1;marginBottom=0;whiteSpace=wrap;html=1;" vertex="1" parent="1">
          <mxGeometry x="70" y="250" width="140" height="210" as="geometry">
            <mxRectangle x="80" y="200" width="70" height="40" as="alternateBounds" />
          </mxGeometry>
        </mxCell>
        <mxCell id="OJfio0yOhIOVdULLnk6X-63" value="+id:String" style="text;strokeColor=none;fillColor=none;align=left;verticalAlign=middle;spacingLeft=4;spacingRight=4;overflow=hidden;points=[[0,0.5],[1,0.5]];portConstraint=eastwest;rotatable=0;whiteSpace=wrap;html=1;" vertex="1" parent="OJfio0yOhIOVdULLnk6X-62">
          <mxGeometry y="30" width="140" height="30" as="geometry" />
        </mxCell>
        <mxCell id="OJfio0yOhIOVdULLnk6X-64" value="+nombre:String" style="text;strokeColor=none;fillColor=none;align=left;verticalAlign=middle;spacingLeft=4;spacingRight=4;overflow=hidden;points=[[0,0.5],[1,0.5]];portConstraint=eastwest;rotatable=0;whiteSpace=wrap;html=1;spacingBottom=0;fontSize=12;" vertex="1" parent="OJfio0yOhIOVdULLnk6X-62">
          <mxGeometry y="60" width="140" height="30" as="geometry" />
        </mxCell>
        <mxCell id="OJfio0yOhIOVdULLnk6X-65" value="&lt;div&gt;+email:String&lt;/div&gt;" style="text;strokeColor=none;fillColor=none;align=left;verticalAlign=middle;spacingLeft=4;spacingRight=4;overflow=hidden;points=[[0,0.5],[1,0.5]];portConstraint=eastwest;rotatable=0;whiteSpace=wrap;html=1;spacingBottom=0;fontSize=12;" vertex="1" parent="OJfio0yOhIOVdULLnk6X-62">
          <mxGeometry y="90" width="140" height="30" as="geometry" />
        </mxCell>
        <mxCell id="OJfio0yOhIOVdULLnk6X-66" value="+tipo:TipoUsuario" style="text;strokeColor=none;fillColor=none;align=left;verticalAlign=middle;spacingLeft=4;spacingRight=4;overflow=hidden;points=[[0,0.5],[1,0.5]];portConstraint=eastwest;rotatable=0;whiteSpace=wrap;html=1;spacingBottom=0;fontSize=12;" vertex="1" parent="OJfio0yOhIOVdULLnk6X-62">
          <mxGeometry y="120" width="140" height="30" as="geometry" />
        </mxCell>
        <mxCell id="OJfio0yOhIOVdULLnk6X-67" value="+activo:boolean" style="text;strokeColor=none;fillColor=none;align=left;verticalAlign=middle;spacingLeft=4;spacingRight=4;overflow=hidden;points=[[0,0.5],[1,0.5]];portConstraint=eastwest;rotatable=0;whiteSpace=wrap;html=1;spacingBottom=0;fontSize=12;" vertex="1" parent="OJfio0yOhIOVdULLnk6X-62">
          <mxGeometry y="150" width="140" height="30" as="geometry" />
        </mxCell>
        <mxCell id="OJfio0yOhIOVdULLnk6X-68" value="+direccion:String" style="text;strokeColor=none;fillColor=none;align=left;verticalAlign=middle;spacingLeft=4;spacingRight=4;overflow=hidden;points=[[0,0.5],[1,0.5]];portConstraint=eastwest;rotatable=0;whiteSpace=wrap;html=1;spacingBottom=0;fontSize=12;" vertex="1" parent="OJfio0yOhIOVdULLnk6X-62">
          <mxGeometry y="180" width="140" height="30" as="geometry" />
        </mxCell>
        <mxCell id="OJfio0yOhIOVdULLnk6X-81" style="edgeStyle=orthogonalEdgeStyle;rounded=0;orthogonalLoop=1;jettySize=auto;html=1;exitX=0.5;exitY=0;exitDx=0;exitDy=0;entryX=0.982;entryY=0.233;entryDx=0;entryDy=0;entryPerimeter=0;" edge="1" parent="1" source="OJfio0yOhIOVdULLnk6X-44" target="OJfio0yOhIOVdULLnk6X-10">
          <mxGeometry relative="1" as="geometry" />
        </mxCell>
        <mxCell id="OJfio0yOhIOVdULLnk6X-83" style="edgeStyle=orthogonalEdgeStyle;rounded=0;orthogonalLoop=1;jettySize=auto;html=1;entryX=0;entryY=0.5;entryDx=0;entryDy=0;" edge="1" parent="1" source="OJfio0yOhIOVdULLnk6X-46" target="OJfio0yOhIOVdULLnk6X-31">
          <mxGeometry relative="1" as="geometry" />
        </mxCell>
        <mxCell id="OJfio0yOhIOVdULLnk6X-84" style="edgeStyle=orthogonalEdgeStyle;rounded=0;orthogonalLoop=1;jettySize=auto;html=1;exitX=1;exitY=0.5;exitDx=0;exitDy=0;" edge="1" parent="1" source="OJfio0yOhIOVdULLnk6X-56" target="OJfio0yOhIOVdULLnk6X-4">
          <mxGeometry relative="1" as="geometry" />
        </mxCell>
        <mxCell id="OJfio0yOhIOVdULLnk6X-85" style="edgeStyle=orthogonalEdgeStyle;rounded=0;orthogonalLoop=1;jettySize=auto;html=1;exitX=0;exitY=0.5;exitDx=0;exitDy=0;entryX=1;entryY=0.5;entryDx=0;entryDy=0;" edge="1" parent="1" source="OJfio0yOhIOVdULLnk6X-36" target="OJfio0yOhIOVdULLnk6X-31">
          <mxGeometry relative="1" as="geometry" />
        </mxCell>
        <mxCell id="OJfio0yOhIOVdULLnk6X-86" style="edgeStyle=orthogonalEdgeStyle;rounded=0;orthogonalLoop=1;jettySize=auto;html=1;exitX=1;exitY=0.5;exitDx=0;exitDy=0;entryX=-0.014;entryY=0.097;entryDx=0;entryDy=0;entryPerimeter=0;" edge="1" parent="1" source="OJfio0yOhIOVdULLnk6X-11" target="OJfio0yOhIOVdULLnk6X-30">
          <mxGeometry relative="1" as="geometry" />
        </mxCell>
      </root>
    </mxGraphModel>
  </diagram>
</mxfile>
